<?xml version="1.0" encoding="utf-8"?>
<!-- Svg Vector Icons : http://www.onlinewebfonts.com/icon -->
<!DOCTYPE svg PUBLIC "-//W3C//DTD SVG 1.1//EN" "http://www.w3.org/Graphics/SVG/1.1/DTD/svg11.dtd">
<svg version="1.1" xmlns="http://www.w3.org/2000/svg" xmlns:xlink="http://www.w3.org/1999/xlink" x="0px" y="0px" viewBox="0 0 1000 1000" enable-background="new 0 0 1000 1000" xml:space="preserve">
<metadata> Svg Vector Icons : http://www.onlinewebfonts.com/icon </metadata>
<g><g transform="translate(0.000000,512.000000) scale(0.100000,-0.100000)"><path d="M4641.4,5016.1c-741.7-88.2-1188.2-207-1699.9-448.4l-197.4-93.9v-101.6c0-139.9-46-226.1-153.3-277.9c-109.2-57.5-199.3-55.6-308.5,1.9l-88.2,47.9l-170.6-128.4c-199.3-149.5-624.7-557.7-795.3-764.7c-105.4-126.5-115-143.7-72.8-136.1c24.9,3.8,1320.4,352.6,2876.5,772.3c2408.9,651.6,2824.7,768.5,2788.3,787.6c-170.6,88.2-766.6,249.1-1124.9,304.7C5503.8,5008.4,4789,5033.4,4641.4,5016.1z"/><path d="M486.7,4567.7c-88.2-82.4-70.9-205.1,36.4-266.4c97.7-55.6,228.1,26.8,228.1,145.6C751.1,4581.1,584.4,4657.8,486.7,4567.7z"/><path d="M8723.3,4439.3c-111.2-42.2-147.6-168.6-74.7-262.5c40.3-49.8,124.6-67.1,199.3-38.3c47.9,19.2,90.1,118.8,76.7,180.1C8905.4,4406.7,8801.9,4469.9,8723.3,4439.3z"/><path d="M4072.2,3561.6c-1763.1-477.2-3217.6-872-3233-877.7c-70.9-26.8-358.4-615.2-481-981.2c-113.1-339.2-230-872-191.6-872c21.1,0,726.3,214.6,758.9,231.9c21.1,11.5,34.5,51.7,42.2,130.3c24.9,279.8,264.5,505.9,567.3,532.8c243.4,23,467.6-95.8,594.1-316.2c19.2-30.7,1895.3,463.8,1933.6,509.8c11.5,17.3,23,53.7,23,80.5c0,82.4,111.2,279.8,195.5,354.5c185.9,157.1,482.9,201.2,689.9,99.7c63.2-30.7,143.7-92,191.6-145.7l82.4-93.9l1795.7,482.9c1577.2,423.5,1791.8,484.8,1776.5,511.7c-36.4,70.9-517.4,550-697.6,697.6c-318.1,258.7-732.1,528.9-806.8,525.1C7293.7,4431.6,5833.4,4038.7,4072.2,3561.6z"/><path d="M1220.6,4008.1c-99.7-53.7-118.8-176.3-38.3-254.9c65.2-67.1,149.5-63.2,222.3,7.7c72.8,72.8,72.8,141.8,0,214.6C1345.2,4033,1285.8,4044.5,1220.6,4008.1z"/><path d="M7238.1,2411.7c-990.8-264.5-1822.5-488.7-1849.3-494.4c-42.2-11.5-47.9-23-53.7-113.1c-15.3-325.8-254.9-565.3-586.4-586.4c-239.6-15.3-429.3,76.7-551.9,266.4c-40.2,61.3-72.8,93.9-92,88.2c-15.3-3.8-444.6-118.8-952.5-254.9l-921.8-247.2l-11.5-76.7c-38.3-241.5-157.1-406.3-360.3-498.3c-99.6-46-147.6-55.6-274-57.5c-130.3,0-170.6,7.7-262.6,53.7c-97.7,47.9-212.7,151.4-258.7,231.9c-15.3,26.8-67.1,15.3-465.7-109.2C350.6,539.4,136,468.5,122.5,460.8c-28.7-19.2-30.7-440.8-1.9-757c24.9-279.8,99.6-684.2,122.6-682.2c17.2,3.8,5879.5,1563.8,5887.2,1567.6c1.9,1.9,11.5,55.6,23,120.7c53.7,333.4,266.4,523.2,601.7,538.5c226.1,11.5,412-74.7,523.2-245.3c28.8-42.2,61.3-76.7,72.8-76.7c11.5-1.9,542.3,138,1176.6,310.5l1157.5,310.4l-11.5,51.7c-19.2,95.8-147.5,423.5-252.9,645.8c-92,195.5-339.2,626.7-369.9,643.9C9045.3,2892.7,8228.9,2678.1,7238.1,2411.7z"/><path d="M8591.1,915c-636.2-170.6-1159.4-316.2-1163.2-320c-3.8-3.8-17.3-57.5-28.7-120.7c-38.3-205-132.2-335.4-308.6-429.3c-103.5-55.6-143.7-67.1-289.4-72.8c-159.1-7.7-174.4-5.8-293.2,53.7c-90.1,44.1-145.7,86.2-195.5,153.3c-38.3,51.7-76.7,93.9-86.2,93.9c-13.4,1.9-1008-262.5-4645.3-1236.1c-688-184-1255.2-333.5-1259.1-333.5c-15.3,0,132.2-419.7,207-586.4l67.1-151.4l130.3,5.7c111.1,5.8,139.9,0,197.4-38.3c136.1-90.1,191.6-302.8,115-436.9c-88.2-153.3-88.2-143.7-11.5-247.2c63.2-86.2,74.7-93.9,122.6-78.6C1328-2777.9,3462.8-2157,3551-2132.1l107.3,30.7l11.5,103.5c23,222.3,157.1,408.2,364.1,500.2c161,74.7,379.5,78.6,519.3,9.6c95.8-46,201.2-139.9,270.2-237.6l38.3-53.7l1264.8,337.3c695.6,185.9,1278.2,343,1295.5,348.8c21.1,5.8,36.4,40.2,44.1,99.6c44.1,306.6,304.7,523.2,636.2,527c116.9,1.9,153.3-5.7,262.5-59.4c92-46,147.6-88.1,191.6-147.6c32.6-46,74.7-84.3,90.1-84.3c15.3,0,295.1,70.9,620.9,157.1c456.1,124.6,596,168.7,611.3,197.4c13.4,23,21.1,195.5,21.1,496.3c0,377.5-7.7,507.9-42.2,728.2c-46,289.4-74.7,413.9-95.8,410.1C9754.3,1231.2,9227.3,1087.5,8591.1,915z"/><path d="M9346.2-915.1c-231.9-63.2-467.6-126.5-521.3-143.7l-101.6-28.7v-84.3c0-203.1-145.6-425.4-341.1-521.3c-95.8-47.9-130.3-53.7-291.3-53.7c-166.7,0-191.6,5.7-283.6,55.6c-99.7,55.6-161,113-245.3,230l-40.3,55.6l-1234.1-329.6c-678.4-182.1-1261-339.2-1293.6-348.8c-53.7-17.2-61.3-26.8-70.9-116.9c-15.3-130.3-93.9-285.5-180.1-362.2c-155.2-136.1-425.4-203.2-609.4-153.3c-115,30.7-251,124.6-318.1,218.5l-59.4,84.3l-231.9-67.1c-287.5-80.5-1889.6-546.2-2071.6-601.8l-130.3-40.2l207-208.9c339.2-341.1,728.2-636.3,1100-835.5l143.7-78.6l881.5,249.1c484.9,136.1,1299.3,364.1,1809.1,507.9c511.7,141.8,931.4,260.6,935.2,264.5c5.8,3.8-5.7,57.5-24.9,118.8c-88.2,300.9,57.5,617.1,343,747.4c97.8,44.1,145.7,53.7,272.1,53.7c178.2,1.9,283.6-36.4,408.2-151.4c88.2-78.6,189.7-264.5,208.9-377.5c7.7-55.6,19.2-70.9,42.2-65.1c17.2,5.7,327.7,84.3,691.8,174.4c364.1,90.1,693.7,172.5,732.1,184c105.4,26.8,118.8,69,61.3,180.1c-53.7,109.2-59.4,222.3-11.5,314.3c46,93.9,118.8,139.9,254.9,162.9l118.8,23l84.3,214.6c82.4,210.8,199.3,607.5,226.1,766.6c9.6,61.3,7.7,80.5-13.4,78.6C9779.2-800.2,9578-851.9,9346.2-915.1z"/><path d="M8175.2-3099.8l-615.2-155.2l-61.3-84.3c-157.1-224.2-528.9-322-770.4-203.2l-80.5,40.3l-557.7-153.3c-404.4-111.2-2594.8-722.5-2838.2-791.5c-24.9-7.7,166.7-78.6,373.7-138c789.6-230,1630.9-258.7,2441.5-84.3c810.6,176.3,1602.1,588.3,2244.1,1167.1c155.2,141.8,507.9,517.4,507.9,544.2C8819.1-2938.9,8851.7-2931.2,8175.2-3099.8z"/><path d="M9152.6-3450.6c-111.2-93.9-38.3-279.8,109.2-279.8c82.4,0,151.4,74.7,151.4,162.9C9413.2-3425.6,9259.9-3356.6,9152.6-3450.6z"/><path d="M473.2-3950.7c-61.3-59.4-61.3-143.7-1.9-212.7c134.1-159.1,367.9,46,239.5,210.8C657.2-3883.7,540.3-3881.7,473.2-3950.7z"/><path d="M1799.4-4255.4c-143.7-109.2-7.7-348.8,159.1-279.8c161,67.1,115,308.5-59.4,306.6C1862.6-4228.6,1818.6-4242,1799.4-4255.4z"/></g></g>
</svg>